/* XPM */
static char *_1517a70e18b4901f8af071cc0a95011sB3pjw58vNNwZxDt[] = {
/* columns rows colors chars-per-pixel */
"64 64 147 2 ",
"   c #A5A3A5",
".  c #A9A6A7",
"X  c #A7A5A9",
"o  c #A9A7A9",
"O  c #ABAAAC",
"+  c #B0AEAF",
"@  c #AEADB0",
"#  c #B1AEB1",
"$  c #B4B3B4",
"%  c #B9B5B6",
"&  c #B7B8B3",
"*  c #BBB8B6",
"=  c #B7B6B9",
"-  c #B9B6B9",
";  c #BCBABB",
":  c #C1BDBD",
">  c #C4C1BE",
",  c #BFBEC0",
"<  c #C2BFC1",
"1  c #C5C2C3",
"2  c #CAC6C5",
"3  c #CCC9C6",
"4  c #C6C5C8",
"5  c #C9C7C8",
"6  c #CDCACA",
"7  c #D2CDCC",
"8  c #D4D1CE",
"9  c #D9D1CF",
"0  c #CECDD1",
"q  c #D2CFD0",
"w  c #D5D2D2",
"e  c #DAD5D4",
"r  c #DDD9D6",
"t  c #D7D7D9",
"y  c #DAD7D8",
"u  c #DEDADA",
"i  c #E0DAD6",
"p  c #E0D7D8",
"a  c #E2DDDB",
"s  c #E8DEDD",
"d  c #E6E1DE",
"f  c #E9E2DE",
"g  c #E3DFE0",
"h  c #E5E2E1",
"j  c #EBE5E2",
"k  c #EEE9E5",
"l  c #EEEBEA",
"z  c #F0E6E2",
"x  c #F1ECE6",
"c  c #F1EAE6",
"v  c #F0E7E8",
"b  c #F0EBE8",
"n  c #F3EBE8",
"m  c #F0EAEA",
"M  c #F1ECE8",
"N  c #F1ECE9",
"B  c #F2EDE9",
"V  c #F3EEE8",
"C  c #F2EDEA",
"Z  c #F3EEEA",
"A  c #F3EEEB",
"S  c #F4ECE9",
"D  c #F5EDEA",
"F  c #F6ECEA",
"G  c #F4EFEB",
"H  c #F6EEEB",
"J  c #F2ECEC",
"K  c #F4EFEC",
"L  c #F7EFEC",
"P  c #F3EDEA",
"I  c #F8EFEC",
"U  c #F5F0EC",
"Y  c #F4F1EC",
"T  c #F6F1ED",
"R  c #F6F3EC",
"E  c #F7F2EE",
"W  c #F7F2EF",
"Q  c #F5F1ED",
"!  c #F8F0ED",
"~  c #F9F1EE",
"^  c #F8F3EF",
"/  c #FAF6ED",
"(  c #F9F4EE",
")  c #F8F5EE",
"_  c #FCF5ED",
"`  c #FCF5EF",
"'  c #FEF5EE",
"]  c #FAF2EE",
"[  c #F2F0F1",
"{  c #F4F2F3",
"}  c #F7F6F2",
"|  c #F6F5F2",
" . c #FBF3F0",
".. c #FAF5F2",
"X. c #FBF6F2",
"o. c #FAF6F3",
"O. c #FCF4F1",
"+. c #FDF6F0",
"@. c #FFF6F1",
"#. c #FEF7F1",
"$. c #FDF5F2",
"%. c #FDF5F3",
"&. c #FFF5F3",
"*. c #FCF7F3",
"=. c #FFF7F2",
"-. c #FEF6F3",
";. c #FBF7F4",
":. c #FFF6F4",
">. c #FFF7F4",
",. c #FCF5F1",
"<. c #FAFAF2",
"1. c #FFF8F0",
"2. c #FFF9F1",
"3. c #FEFAF1",
"4. c #FDF8F2",
"5. c #FFF8F2",
"6. c #FFF8F3",
"7. c #FEF9F3",
"8. c #FFF9F3",
"9. c #FBFAF5",
"0. c #FDF8F4",
"q. c #FCF9F4",
"w. c #FFF8F5",
"e. c #FEF9F5",
"r. c #FDFAF5",
"t. c #FEFBF4",
"y. c #FFFBF5",
"u. c #FDF9F6",
"i. c #FFF8F6",
"p. c #FFFAF6",
"a. c #FEFAF7",
"s. c #FFFCF5",
"d. c #FFFFF5",
"f. c #FFFCF7",
"g. c #FEFEF6",
"h. c #FEFFF7",
"j. c #FFFFF7",
"k. c #FEFAF5",
"l. c #FEFDF8",
"z. c #FFFDF8",
"x. c #FFFEF9",
"c. c #FFFFFB",
"v. c #FFFFFD",
"b. c #FEFEFE",
"n. c #FFFEFF",
"m. c white",
"M. c #FEFEFA",
/* pixels */
"v.r.J h y 6 - $ S ; 3 ' e f R a ; a s w ` j w < $ h 7.i * x f 2 7.k 3 < >.7. .I v z h d q 3 ) 7.7.=.~ k t , [ v.;.l a e 6 $ < A ",
"v.r.n h y 6 - & ! 2 $ 7.f 9 H h < i k 2 ~ k i 6 $ : =.! : e =.1 k r.u - r g.=...n k g p 1 f r.=.` ` L j t ; | v.;.k a w 5 @ 1 >.",
"v.7.C g e 6 = * +.w O j +.w d x < i A 1 x R s 8 4 + e g.7 2 g.7 7 g.x 7 ; ) 7.` R k a 6 7 7.=.` ) =.~ k t ; { b.+.l a t 5 # 6 =.",
"v.r.H h e 5 $ ; =.e O w g.s 7 k 2 s R : j r.d r 6 - * ` j : <.d > r. .i : 9 x.7.~ n u 2 f r.=.=.=.=.H f t ; [ b.} l g w 2 O 8 =.",
"v.r.J g w 5 # 2 u.u @ 2 g.k 7 i 3 x n : h g.j i 7 2 # e 7.2 C U ; l x.l 7 : C g.=.j w 6 7.>.=.=.>. .C k u ; l b.;.l u 8 1 O s 7.",
"v.r.l a w 2 O w r.a - * r.H e 6 7 =.z , j x.k s e 6 - ; ` q j =.: r x.A a 1 3 g.=.n 7 a g.=.>.>.>...C k g < g b.+.l u 6 , O x ..",
"v.u.n a 7 1 O s >.a ; + ) ~ e 1 e =.d ; x =.x s e 7 4 # a f f g.3 7 x.=.j e ; d x.x w R g.=.>.r...~ C k h 4 t v.} l r 6 - = ..H ",
"v.u.l u 6 , $ A ..a 4 . S ..e ; j =.w , +.+.x h i e 3 - 3 n d g.7 1 g.r.n a 3 > 9.R i 9.>.7.r. .~ A H k k w 4 x.u.j y 6 # 5 =.n ",
"9.x.l r 3 = : =.H a 5 o j +.6 1 ` n 2 7 g.I l h a w 6 , - j j x.e : r.r.~ h e ; e =.n x.+.7.r. .R C x x l h 4 [ x.j t 4 @ u 7.l ",
"h x.x t 5 # w 7.n a 6 o s ~ 1 8 7.g - j r.A l j a t w 2 = d l x.i ; +.x...k s 7 : x u.r.=.>.....R C x k R k 0 t v.j q , = C R k ",
"6 u.l w 1 $ k ] l a 6 O i n , k R w - ` 7.H k j a u 8 3 = i C g.a ; [ x.>.n d e 1 6 x.M.=.&...Y n l d l r.l t 0 J j q = 3 ) Y j ",
"0 h l q - 1 =.A j i 0 # u u 7 +.k 2 > g.] H k j u e w 5 ; i C x.a - Y x.>.R j s 8 - k x.>.=.A C j s d 9.=.C h t e h 6 $ d 1.l f ",
"t w g 6 = r =.x j i 7 # e 8 z A h ; > g.] H x h d u t 4 1 a j x.u - Y x.9.R k d r 4 7 x.r.=.J k u u +.x.;.l k u w t 1 1 ~ U k a ",
"h t q 4 : L ~ k d e 6 - 2 a  .j a ; & t.=.H j h d e w 1 e u f g.u ; Y x.=...n h a 7 1 Q M.+.n s u k g.r.+.C k g t 6 - i =.x h a ",
"d t 0 ; e ) l j a w 3 = 3 I H h u 1 O a >.k j f a e 7 7 n 5 k g.y ; R x.;...n k d u 2 a x...h e j Y g.=.| l h u t 1 4 ~ H x f e ",
"h t 5 < U U k d y q 4 - d I x h a 6 $ # i x k h s e i k s , R ;.w : +.9.=...n n f s q 7 x.{ e j f | 9.=.| [ h u q < f ~ j h a e ",
"u w 1 u ..k h a e 5 ; 3 R x l f a w 6 ; % 2 9 e e i s h 6 : t.+.6 : r.r.=. .C k k s r 5 ~ k a x a x.7.7.| l g t 4 8 U x j d e 6 ",
"t 4 6 R n k s e 6 ; ; l L k j d a e e w 3 2 2 7 e u s r < 2 g.A 5 > x.r.=...R l h h i 6 k d x a k x.7.=.Q h u 0 1 k Y k d u 0 1 ",
"w < k Y k h u q 2 = e =.x k k d s e e i i e p p i a i q $ e g.n 2 3 x.<.=.~ C n k f a 7 e j H w g.g.=.~ l h t < t / Y j d y 5 - ",
"4 t r.C k s e 6 - - C H k j d s d r w h f d s i i u e 6 $ h r.h > 8 x.=.` U C l j h a 7 6 ) d r x.7.` ~ l g 0 4 <./ l h u 6 1 $ ",
"4 R 7.C h u q 4 O w ` x j j d d a i 3 r ) j j d a y w < = R <.a ; a g.<.` ~ x n j s u 3 8 >.6 l x.+.=...k y 1 g x.R j a w 5 ; = ",
"u v.R k d t 6 - $ C ~ C l f d d a u 5 6 7.x j f i w 7 ; 1 r.R y = k g.` ] U x k j h e 1 d R 6 <.x.<.=.R k t 1 | x.J h u 7 2 $ 5 ",
"..a.Y h u q 2 $ 2 +.U l k f d a a e 5 ; R +.k j r e 6 = e t.k 8 - ~ g.` ~ S l k h s w 1 ..i w x.<.7.=.~ h 6 q x.;.C h t 6 , $ d ",
"x.;.Y h u 0 < # a =.x Y j f d a a e 6 = l r.k j r 8 2 ; S ` j 5 > 7.7.] ~ H l j s e 3 8 g.6 u x.=.=.) H h < g v.{ k g w 5 $ 2 ) ",
"M.+.k u w 5 = 1 ~ A H k j f d a u w 3 $ a r.x h y 6 * 8 7.H a < 3 t.+...C x k h i w < k A 4 U g.+.=.+.A h < A v.R h e 6 < @ a r.",
"a.{ j u 6 < @ w =.~ n k j h d d e e 6 = e r.~ f e 1 : R ~ k e - e g.=.{ C j x f u 5 2 r.i 2 r.u.r.7.<.! d 1 | u.H g w 4 - $ j >.",
"9.Y h e 2 , # a 7.~ n k j d d a e t 6 $ r ) +.h 7 * a 7.C d 7 = f M.+.Y k C R j y : u x.q 3 x.r.~ ~ 7.U h 5 } 9.x a q 4 $ ; k =.",
"9.l h w 2 - * j =.A l k f d a a y w 5 $ a J ;.a 2 : _ ! k a 7 $ x M.+.k s r...h w ; j u.7 3 g.x.~ h R 7.l w 9.;.n u q 1 # 2 x ` ",
"9.C a w 2 # 1 j =.H C j h d s u e e 2 $ a x +.u * r =.H j u 2 $ R r.I i x r.C d 7 ; C +.6 6 x.r.` d e +.r.i a.a.l u 6 < O e k =.",
"r.C g 6 1 @ 6 j =.R C j h d d u e q < = j j ) 7 > ~ ~ x f y 1 * ) 7.f a =.+.C a 7 ; ) +.6 2 x.x.=.x 7 w r.x a.a.l a 6 ; $ r j =.",
"u.A a 6 , @ y d =.R n k f a a r e 7 ; : z f R 1 r 1.x k d e 1 * 7. .r k +.=.k a 5 : 9.~ 6 : u.v.=.C a 2 j r.x.u.n u 5 - & a d r.",
"r.I a 6 - @ u a 7.A l j f d a e w 7 - 3 z d j 2 ! ! C k d w ; : 7.x e n |  .k u 2 ; 9.` w ; R x.=.H h 5 8 { v.g.J e 2 # : a d 7.",
"x.[ u 6 - $ s e r.A J j d a r e 8 2 $ i d f p e  .H n j a w ; > r.a s x =.~ k e 2 ; <.=.u - a v.r.~ z w 6 j M.v.Y u 4 @ 2 i u r.",
"x.;.g 6 $ ; d 7 r.R C j d a i t 7 < * n e j 9 z ~ n k j d 8 ; > 7.e x k =.~ j u 2 - <.>.f < 2 x.g.] x e 0 h l v.;.u 2 O 7 i w x.",
"v.;.h 6 $ : j 2 x.R C k h a e w 7 - 3 F 7 h e ] H k k j d 8 * 2 =.e H j 7.~ j u 1 * | r.k 7 * n v.>.I i 6 k u v.9.h 4 O e i 3 x.",
"v.x.j 6 + 1 k : >. .C k h a e t 2 - j i 9 a h _ x h d x d e ; 3 H i H f t.A j e 2 = Y g.n i : 7 v.i.I j 5 A u | r.h 5 o e d - =.",
"[ v.k 6 O 3 n $ x r.C k h i e 6 ; 6 H 5 a a L n j i h ~ d t - 3 k d n d g.H j r 2 $ l x.I f 3 * Y x.~ j 3 A t l v.h 5 o e l + f ",
"h v.l 0 O 3  .$ 7 x.n k h a e 2 1 k d 1 s a ~ x f e z  .f e - 3 f k j h g.~ k e 3 $ f x. .z e ; w x.=.v 6 { u u v.k 5 o 9 ! * $ ",
"w v.J w O 2 =.2 O j =.j d i w 3 a k 3 7 f k I j i 7 A ..f e : 1 a ~ s a x.I j y 6 = e x.=.n a 7 - { x.x 7 +.u q v.l 6 O 8 =.7 O ",
"4 x.Y w + : r.r = O e j f i e i f u - i a I n g e 7  .] h e : : a ` a i x.~ k i 7 - 2 x.=.I j e : 7 x.H 7 >.u 4 v.l 7 o 7 r.i 5 ",
"1 9.R t @ ; t.d 7 * O * 2 7 9 r i 6 ; f a ! f d 3 8 ` ~ j e , - i 7.i e x.~ z a q ; ; 7.g. .x a 7 ; / ! e u.u 1 x.l w O > r.f e ",
"; [ R e = + 1.k e 7 1 : > 2 9 e w - 2 x f H f i > e ~ ] j e 1 $ i t.r 8 g. .n a w 4 $ k g.` n j e : u ` u r.t 1 g.J w @ * 7.x d ",
"- Q } y * + R ! d r 8 7 7 e 9 8 6 @ 7 j n x f w > r H ..j r 2 $ e g.i 3 g.=.n j e 3 $ 7 g.7.] j i 3 3 ! a ;.y ; ;.J e = O ) H f ",
"- Y | r <   j ` k a r e 9 e e 7 2 O e k H k d w 1 i x =.k u 2 $ e r.s < ) r.A j p 7 ; * 7.r.] n d e 2 j d { w ; 9.C y 1   f =.j ",
"= Y +.u 5   9 r.k h a r r e w 5 1 o i x A k a 6 > a j 7.k a 5 @ 7 t.j : x r.I z s 7 2 # j u.` H j e 3 e h A q , <.Y u 6   7 7.k ",
"- J +.a 7 O * 1.n j d i i e w 6 ,   r ~ ~ j s 6 : a a r.n a 6 $ 7 g.x : a x.~ x d t 3 $ 7 x.` H f e 7 7 k l 4 1 g.Y u w + $ 7.x ",
"; | ) a e ;   U ..k f i a e e 7 <   7 ` ~ k d 6 ; j w 7.A s 7 $ 2 t.S 2 2 g.=.H f y 7 : * <.g.L f e 3 9 A j < 4 r.H w r 8   d 7.",
"; 7.~ w 8 a O 7 g.x j d i a y w 4 O $ 7.) l d 8 $ j 8 H =.h q $ > 1.U 8 ; R r.~ j s 8 1 $ f g.H a e 3 a H a - 7 r.x 6 ; j > : 7.",
"3 r.C w = u 9 $ ! ~ k a e e s e 7 *   s <.R j y # i i i r.k e = * =.~ a $ u x.` C f e 6 $ i r.n a 6 7 n k e = r r.k 8 # 2 k - d ",
"8 7.n r = = k 1 8 7.x h i 3 8 k e 4 . - r. .n i - 2 n 5 r.H i < # U ) f : : g.r.R j i 7 ; r 7.z e 7 s n j q = j >.j w ; o u i : ",
"s r.k e 1 O 3 f > H ] j a 7 ; u k e ;   e x.H h 3 $ I 7 d 7.d 3 O f =.k w + r x.=.n a e : f _ a 7 9 z z d 5 - H =.f t 1 O : s w ",
"C =.j y 3 O ; e r 7 r.n d p 1 ; l j w $ o k r.n e # 9 x 2 7.C e + 7 g.n a < + J x.C d e 9 n x 8 8 f z f u 1 1 r.J h 8 2 O ; 3 k ",
" ...h e 6 $ $ 2 d 8 f >.j a 7 $ 9 C a 6 O $ =.=.j 2 $ ] 7 p r.a ; * =.] f e % * C =.f i s z e 7 f z f f e ; 7 x.C d w 5 + $ 3 7 ",
">.A j y 5 = O 6 > n 6 A A d e - 3 i x i 1   1 7.{ a $ 7 L : H H 7 O j r.n i 7 = $ 6 9 e s a 7 e z f f s w $ i 7.C d e 3 $ O e + ",
"=.J d e 6 * o e $ d i e  .k i : 1 i a k 8 -   e g.x 6 O L 7 7 =.i $ > g.L z a 7 2 : 7 p i 7 7 f f f s i 8 $ f r.C a w 6 = o i * ",
"..n j y 6 ;   w 1 ; I 6 g A a 2 ; a 6 k a 7 $ O j =.s $ 9 n ; x H 3 O k =.H f i p p r i 7 > s z f f s i 3 $ l <.l d e 6 -   r 6 ",
"} Y d e 6 : . 3 r O d f 3 k f 7 * d 3 i x e 2 O % ! L 3 * ! 3 7 1.i = > 1.! x f d r r e 1 7 x j j f f r 4 = l 9.k a e 5 ; o 8 y ",
"} l d r 6 > O : k + : ~ 9 8 k 9 = a 9 2 C i 8 > O > ] f $ i f ; k C 7 + i 1.n x f d e 3 : f x x x k f r 3 = [ | l h y 5 ; O 7 j ",
"} l f r 7 1 O ; x > . f k 3 u d * i s * k f e 3 ; o 9 R 1 3 R < 8 =.d > * x U n j d w : 8 R V S n x h d 6 = [ { l d w 6 :   7 x ",
"| Y f e 6 , . > H 6   e ! e 3 i ; f d * h S i 8 1 $ $ S i ; ~ w * R k e & 7 ) H j d 8 > f / V V H x f d q = [ 9.C d w 5 ;   e x ",
"| Y d t 6 ,   7 U 8   > ) d 2 8 2 x a $ d U a e 6 : O 7 x : k f $ k ~ d 7 % d ) l d 2 8 ) S C C C k j a w = h | l a w 2 * . f k ",
"| l f w 4 -   r S 8 O & ' f 3 > 7 S e * j H a r 7 1 & $ x 7 d x * e <.k 9 : : U U d > f ~ C R R n k j d e - g 9.l d 7 1 $ O x j ",
"} l d w 2 = O j x e & O R f 6 * i H 8 ; V x d a 7 2 : O e i a R ; 3 <.x a 7 & 8 <.d 8 R U U R C n k j d u , 0 9.C a 6 4 @ : H d ",
"| Y d 8 2 O * H f w * . z f 4 = k j > > R k f i e 7 1 + > f a ~ 1 > 7.U f p > * f j d R S U C l j j j h h 6 1 | Y a 6 , O 7 I d "
};
